<svg width="12" height="17" viewBox="0 0 12 17" fill="none" xmlns="http://www.w3.org/2000/svg">
<g clip-path="url(#clip0_8_377)">
<path d="M10.3845 0.00352358L7.96089 0C5.23801 0 3.47836 1.63582 3.47836 4.16769V6.08928H1.0415C0.830921 6.08928 0.6604 6.24396 0.6604 6.43477V9.21893C0.6604 9.40976 0.831116 9.56425 1.0415 9.56425H3.47836V16.5896C3.47836 16.7804 3.64888 16.9349 3.85945 16.9349H7.03887C7.24945 16.9349 7.41997 16.7802 7.41997 16.5896V9.56425H10.2692C10.4798 9.56425 10.6503 9.40976 10.6503 9.21893L10.6515 6.43477C10.6515 6.34315 10.6112 6.25542 10.5399 6.19058C10.4685 6.12575 10.3713 6.08928 10.2702 6.08928H7.41997V4.46032C7.41997 3.67739 7.62588 3.27993 8.75147 3.27993L10.3841 3.2794C10.5945 3.2794 10.765 3.12471 10.765 2.93409V0.348835C10.765 0.158385 10.5947 0.00387594 10.3845 0.00352358Z" fill="#7C7675"/>
</g>
<defs>
<clipPath id="clip0_8_377">
<rect width="10.3832" height="16.9349" fill="white" transform="translate(0.6604)"/>
</clipPath>
</defs>
</svg>
