<svg width="158" height="31" viewBox="0 0 158 31" fill="none" xmlns="http://www.w3.org/2000/svg">
<g clip-path="url(#clip0_8_394)">
<path d="M7.94049 1.01099H15.0606V2.64729H12.6967V25.8378H10.5765V2.64729H7.94049V1.01099Z" fill="#333333"/>
<path d="M25.2093 4.4248C25.2474 4.4248 25.2665 4.57528 25.2665 4.87621C25.2665 5.17714 25.2618 5.47807 25.2523 5.77899V6.21628C24.4977 6.21628 23.8291 6.36675 23.2465 6.66768C22.6735 6.95921 22.1101 7.49054 21.5561 8.26168V25.8379H19.4215V4.67872H21.5561V7.03444C21.8044 6.20688 22.239 5.5674 22.8598 5.11601C23.4901 4.65521 24.2733 4.4248 25.2093 4.4248Z" fill="#333333"/>
<path d="M29.7564 4.67861H31.9053V25.8378H29.7564V4.67861ZM29.7564 0.700684H31.8909V2.73196H29.7564V0.700684Z" fill="#333333"/>
<path d="M44.2315 10.8712C44.2315 9.21605 44.1599 8.18632 44.0166 7.78195C43.8829 7.36817 43.7206 7.01551 43.5295 6.72399C43.3385 6.43246 43.0233 6.2867 42.584 6.2867C42.1447 6.2867 41.8199 6.31491 41.6098 6.37134C41.0941 6.5124 40.7168 6.92147 40.478 7.59857C40.2393 8.26626 40.1199 9.36651 40.1199 10.8994V19.3066C40.1199 21.1028 40.2632 22.3723 40.5497 23.1153C40.8458 23.8488 41.3997 24.2155 42.2115 24.2155C43.0233 24.2155 43.563 23.8488 43.8304 23.1153C44.0978 22.3817 44.2315 21.0887 44.2315 19.2361V10.8712ZM40.1199 6.30081C40.6261 5.1159 41.5764 4.52344 42.9708 4.52344C43.945 4.52344 44.6756 4.84318 45.1627 5.48265C45.6593 6.11272 45.9841 6.93088 46.1368 7.93712C46.2897 8.93395 46.3661 10.1376 46.3661 11.5482V19.1373C46.3661 19.1655 46.3661 19.1985 46.3661 19.2361C46.3661 21.8975 46.0127 23.7077 45.306 24.6669C44.5992 25.6168 43.6345 26.0916 42.4121 26.0916C41.925 26.0916 41.4665 25.9224 41.0368 25.5838C40.6166 25.2359 40.3109 24.8127 40.1199 24.3143V29.5759H37.9854V4.6786H40.1199V6.30081Z" fill="#333333"/>
<path d="M60.5891 4.93252L60.6035 5.51087C60.6035 6.5265 61.1382 8.33209 62.208 10.9276C62.9434 10.0248 63.5069 9.14084 63.8985 8.27566C64.2996 7.40109 64.5002 6.42777 64.5002 5.3557C64.5002 4.28363 64.3808 3.5219 64.1419 3.07051C63.9032 2.60971 63.3397 2.37931 62.4515 2.37931C61.2959 2.37931 60.6847 3.03289 60.6177 4.34006C60.6082 4.54695 60.5986 4.68331 60.5891 4.74914C60.5891 4.80556 60.5891 4.86668 60.5891 4.93252ZM66.7493 20.689C68.1055 23.4915 68.9269 25.2076 69.2135 25.8378H67.437C67.1886 25.2547 66.6825 24.1921 65.9185 22.6498C65.4409 23.7125 64.949 24.4742 64.4429 24.935C63.9367 25.3958 63.4304 25.7061 62.9243 25.866C62.4276 26.0352 61.8546 26.1198 61.2052 26.1198C59.9062 26.1198 58.8556 25.6779 58.0533 24.7939C57.2511 23.9099 56.85 22.6968 56.85 21.1545C56.85 19.6123 57.0075 18.4697 57.3227 17.7267C57.6475 16.9838 57.9531 16.3302 58.2396 15.7659C58.5261 15.2018 59.4144 14.0921 60.9043 12.437C59.3093 8.91984 58.5118 6.60174 58.5118 5.48266C58.5118 2.29468 59.8776 0.700684 62.6091 0.700684C64.204 0.700684 65.2498 1.11446 65.7465 1.94202C66.2527 2.76958 66.5058 3.92628 66.5058 5.41212C66.5058 6.89797 66.1716 8.19573 65.503 9.30537C64.844 10.4056 64.013 11.567 63.0102 12.7896C63.6884 14.3319 64.6004 16.2691 65.7465 18.6013C66.5201 17.0026 67.3701 15.6672 68.2966 14.5951L69.2851 16.1046C68.4255 17.1578 67.5802 18.6859 66.7493 20.689ZM64.8583 20.5339C63.4639 17.7691 62.4372 15.6955 61.7782 14.313C60.976 15.3663 60.3169 16.4337 59.8011 17.5151C59.2855 18.5966 59.0228 19.8333 59.0132 21.2251C59.0132 23.3128 59.8299 24.3566 61.463 24.3566C62.3608 24.3566 63.1153 23.8394 63.7265 22.8049C64.0321 22.2689 64.4094 21.5119 64.8583 20.5339Z" fill="#333333"/>
<path d="M89.3674 1.01099H91.7599V25.8378H89.8259V15.2018L90.1554 5.2005L86.5596 25.3017H84.5252L80.8004 5.2005L81.1299 15.2018V25.8378H79.1816V1.01099H81.5741L85.5424 21.8598L89.3674 1.01099Z" fill="#333333"/>
<path d="M97.84 4.67861H99.9893V25.8378H97.84V4.67861ZM97.84 0.700684H99.9745V2.73196H97.84V0.700684Z" fill="#333333"/>
<path d="M108.204 6.75202C108.395 6.12195 108.815 5.57651 109.464 5.11571C110.124 4.64551 110.897 4.4104 111.785 4.4104C112.673 4.4104 113.404 4.77246 113.977 5.49658C114.55 6.22069 114.837 7.30686 114.837 8.75509V25.8376H112.702V8.58582C112.702 7.76766 112.511 7.1799 112.129 6.82255C111.756 6.45579 111.255 6.27241 110.625 6.27241C109.011 6.27241 108.204 7.05765 108.204 8.62813V25.8376H106.069V4.67842H108.204V6.75202Z" fill="#333333"/>
<path d="M126.575 11.2097C126.575 9.39469 126.432 8.12515 126.146 7.40104C125.868 6.66752 125.324 6.30076 124.512 6.30076C123.7 6.30076 123.156 6.67692 122.88 7.42925C122.602 8.17217 122.463 9.46522 122.463 11.3084V19.6874C122.463 21.6247 122.617 22.866 122.922 23.4115C123.237 23.9569 123.7 24.2296 124.312 24.2296C124.923 24.2296 125.358 24.1215 125.615 23.9052C125.883 23.6795 126.108 23.308 126.289 22.7908C126.48 22.2642 126.575 21.2391 126.575 19.7156V11.2097ZM126.561 0.686523H128.71V25.8378H126.561V24.2296C126.064 25.4052 125.114 25.9929 123.71 25.9929C122.115 25.9835 121.102 25.0478 120.673 23.1858C120.434 22.1607 120.315 20.783 120.315 19.0527V11.6187C120.315 8.77873 120.659 6.86971 121.346 5.89168C122.043 4.91365 123.022 4.42464 124.283 4.42464C124.77 4.42464 125.219 4.59862 125.63 4.94657C126.05 5.28512 126.36 5.6989 126.561 6.18791V0.686523Z" fill="#333333"/>
<path fill-rule="evenodd" clip-rule="evenodd" d="M151.468 7.47272L157.693 13.601C158.074 13.9772 158.074 14.5869 157.693 14.9629L151.468 21.0913C151.086 21.4674 150.467 21.4674 150.085 21.0913C149.704 20.7152 149.704 20.1055 150.085 19.7294L154.64 15.245H137.441V13.3191H154.64L150.085 8.83458C149.704 8.45852 149.704 7.84879 150.085 7.47272C150.467 7.09666 151.086 7.09666 151.468 7.47272Z" fill="#EFC224"/>
<path d="M4.43324 13.3191H0.52124V15.2451H4.43324V13.3191Z" fill="#EFC224"/>
</g>
<defs>
<clipPath id="clip0_8_394">
<rect width="157.458" height="29.636" fill="white" transform="translate(0.52124 0.686523)"/>
</clipPath>
</defs>
</svg>
