<svg width="21" height="15" viewBox="0 0 21 15" fill="none" xmlns="http://www.w3.org/2000/svg">
<g clip-path="url(#clip0_8_375)">
<path d="M20.3615 2.45587C19.6263 2.74243 18.8909 2.9214 18.1559 2.99328C18.986 2.54198 19.5475 1.90441 19.8401 1.08062C19.0807 1.48887 18.2705 1.76817 17.4089 1.91868C16.6497 1.188 15.717 0.82251 14.61 0.82251C13.5507 0.82251 12.6475 1.16094 11.9001 1.83794C11.1531 2.51491 10.7795 3.33329 10.7795 4.29318C10.7795 4.55102 10.8111 4.81617 10.8744 5.08837C9.30897 5.01674 7.84048 4.66036 6.46869 4.01922C5.09698 3.378 3.93282 2.52373 2.97624 1.45639C2.62836 1.99354 2.45437 2.57747 2.45437 3.20785C2.45437 3.80243 2.60851 4.35411 2.917 4.86274C3.22529 5.37128 3.64045 5.78314 4.16227 6.09838C3.5455 6.07685 2.96838 5.92996 2.43086 5.65773V5.70071C2.43086 6.53892 2.7214 7.27483 3.30243 7.90901C3.88352 8.54312 4.61686 8.94225 5.50225 9.10709C5.17017 9.18579 4.8341 9.2252 4.49419 9.2252C4.2728 9.2252 4.03164 9.20732 3.77079 9.17176C4.01586 9.86649 4.46653 10.4376 5.12264 10.8856C5.77888 11.3332 6.52206 11.564 7.35222 11.5787C5.96082 12.5671 4.37569 13.0613 2.59684 13.0613C2.25682 13.0613 1.94857 13.0473 1.67181 13.0185C3.45071 14.0571 5.41137 14.5764 7.55392 14.5764C8.91375 14.5764 10.1906 14.3814 11.384 13.9909C12.5781 13.6006 13.5978 13.0776 14.4438 12.422C15.2896 11.7666 16.0191 11.0126 16.6318 10.1601C17.2444 9.30763 17.7008 8.41763 18.0015 7.48996C18.3018 6.5621 18.4521 5.63282 18.4521 4.70138C18.4521 4.50078 18.4481 4.35042 18.4401 4.25008C19.1914 3.75602 19.8318 3.15775 20.3615 2.45587Z" fill="#7C7675"/>
</g>
<defs>
<clipPath id="clip0_8_375">
<rect width="19.7281" height="14.1124" fill="white" transform="translate(0.912354 0.82251)"/>
</clipPath>
</defs>
</svg>
