<svg width="21" height="12" viewBox="0 0 21 12" fill="none" xmlns="http://www.w3.org/2000/svg">
<g clip-path="url(#clip0_8_373)">
<path d="M20.6563 10.3405C20.6312 10.2914 20.6077 10.2507 20.5859 10.218C20.2256 9.63007 19.5371 8.90837 18.5208 8.05274L18.4993 8.03315L18.4886 8.02354L18.4777 8.01369H18.4668C18.0055 7.61527 17.7134 7.34738 17.5911 7.21022C17.3674 6.94896 17.3172 6.68449 17.4395 6.41653C17.5259 6.21408 17.8506 5.78652 18.4126 5.13329C18.7082 4.78708 18.9424 4.50962 19.1154 4.30058C20.3625 2.7983 20.9032 1.83832 20.7372 1.42027L20.6729 1.32258C20.6296 1.26376 20.5178 1.20996 20.3378 1.16089C20.1574 1.11192 19.9268 1.10382 19.6456 1.13646L16.5318 1.15595C16.4814 1.13975 16.4093 1.14126 16.3155 1.16089C16.2218 1.18051 16.1748 1.19036 16.1748 1.19036L16.1206 1.2149L16.0777 1.24437C16.0416 1.26386 16.002 1.29815 15.9587 1.34715C15.9156 1.39598 15.8797 1.45328 15.8508 1.51858C15.5118 2.30887 15.1264 3.04365 14.6938 3.72287C14.427 4.12787 14.1821 4.47888 13.9585 4.77607C13.735 5.07317 13.5476 5.29205 13.3963 5.43236C13.2448 5.57281 13.1082 5.68533 12.9853 5.77033C12.8628 5.85536 12.7693 5.89128 12.7044 5.87814C12.6395 5.865 12.5783 5.85196 12.5204 5.83892C12.4196 5.7801 12.3385 5.70012 12.2773 5.59889C12.2158 5.49767 12.1745 5.37026 12.1529 5.21676C12.1313 5.06318 12.1187 4.93106 12.115 4.81999C12.1116 4.70906 12.1131 4.55214 12.1205 4.34968C12.128 4.14712 12.1313 4.01007 12.1313 3.93822C12.1313 3.68999 12.1367 3.42059 12.1474 3.12995C12.1583 2.8393 12.1671 2.60902 12.1745 2.43937C12.1819 2.26954 12.1853 2.08988 12.1853 1.90047C12.1853 1.71105 12.1725 1.5625 12.1474 1.45469C12.1226 1.34701 12.0845 1.24249 12.0342 1.14116C11.9837 1.03993 11.9096 0.961624 11.8126 0.906036C11.7153 0.850515 11.5943 0.806455 11.4504 0.77372C11.0683 0.69538 10.5817 0.653002 9.99056 0.646414C8.64992 0.633374 7.78849 0.711816 7.40645 0.881638C7.25509 0.953389 7.11811 1.05143 6.99564 1.17544C6.86586 1.31918 6.84776 1.39762 6.94145 1.41052C7.374 1.46924 7.68022 1.60969 7.86045 1.83173L7.92539 1.9494C7.97591 2.03429 8.02635 2.18459 8.07683 2.40008C8.12724 2.61557 8.15977 2.85396 8.17408 3.11508C8.21006 3.59195 8.21006 4.00015 8.17408 4.33973C8.13799 4.67944 8.10391 4.9439 8.07138 5.13331C8.03885 5.32273 7.99023 5.47622 7.92539 5.59374C7.86045 5.71131 7.81723 5.78316 7.79557 5.80924C7.77394 5.83532 7.75592 5.85176 7.74161 5.8582C7.64791 5.89074 7.55048 5.90731 7.44963 5.90731C7.34863 5.90731 7.22616 5.86153 7.08202 5.77006C6.93793 5.67857 6.78838 5.55291 6.63337 5.39287C6.47837 5.2328 6.30357 5.0091 6.10887 4.72175C5.91433 4.4344 5.71248 4.09479 5.50344 3.70293L5.33049 3.41873C5.22237 3.2359 5.07468 2.9697 4.88726 2.62034C4.69973 2.27085 4.53397 1.93278 4.38987 1.60621C4.33227 1.46906 4.24573 1.36465 4.13043 1.29279L4.07631 1.26332C4.04033 1.23724 3.98258 1.20955 3.90336 1.18004C3.82402 1.15056 3.74123 1.12942 3.65466 1.11642L0.692115 1.13591C0.389381 1.13591 0.183974 1.19805 0.0758161 1.32216L0.0325305 1.38088C0.0109066 1.41358 0 1.4658 0 1.53769C0 1.60954 0.0216239 1.69774 0.0649095 1.80215C0.497387 2.72315 0.967697 3.61138 1.47584 4.46696C1.98398 5.32256 2.42555 6.01176 2.80027 6.53396C3.17507 7.05653 3.55711 7.54973 3.94637 8.01331C4.33564 8.47707 4.59331 8.77427 4.71938 8.90483C4.8456 9.03564 4.94474 9.13343 5.01681 9.19874L5.28717 9.43382C5.46016 9.59061 5.71419 9.77837 6.04938 9.99713C6.38464 10.216 6.75581 10.4315 7.16307 10.6439C7.57039 10.8561 8.04427 11.0291 8.58494 11.163C9.12554 11.297 9.6517 11.3508 10.1635 11.3248H11.407C11.6591 11.305 11.8501 11.2333 11.98 11.1093L12.023 11.0601C12.052 11.0211 12.0791 10.9606 12.104 10.879C12.1293 10.7975 12.1419 10.7075 12.1419 10.6097C12.1345 10.3288 12.1581 10.0758 12.2121 9.8505C12.266 9.62526 12.3274 9.45544 12.3961 9.34107C12.4647 9.22681 12.5422 9.13038 12.6285 9.05221C12.7149 8.97388 12.7764 8.92642 12.8126 8.91008C12.8485 8.89364 12.8771 8.8825 12.8987 8.87581C13.0717 8.82358 13.2753 8.87416 13.5098 9.02778C13.7441 9.18127 13.964 9.37078 14.1694 9.59603C14.3749 9.82147 14.6217 10.0744 14.91 10.3552C15.1985 10.6361 15.4507 10.8449 15.6668 10.9822L15.883 11.0999C16.0274 11.1782 16.2148 11.2501 16.4455 11.3154C16.6758 11.3807 16.8776 11.3971 17.0508 11.3644L19.8186 11.3253C20.0924 11.3253 20.3054 11.2842 20.4565 11.2027C20.608 11.121 20.6979 11.0311 20.7268 10.9333C20.7558 10.8354 20.7574 10.7243 20.7323 10.6C20.7067 10.4761 20.6815 10.3894 20.6563 10.3405Z" fill="#7C7675"/>
</g>
<defs>
<clipPath id="clip0_8_373">
<rect width="20.7664" height="11.2899" fill="white" transform="translate(0 0.64502)"/>
</clipPath>
</defs>
</svg>
