<svg width="21" height="14" viewBox="0 0 21 14" fill="none" xmlns="http://www.w3.org/2000/svg">
<g clip-path="url(#clip0_8_379)">
<path d="M19.7455 1.84307C19.0334 1.07606 17.7186 0.763184 15.2077 0.763184H6.09298C3.52457 0.763184 2.18752 1.09624 1.47807 1.91284C0.786377 2.70903 0.786377 3.88215 0.786377 5.50578V8.60042C0.786377 11.7459 1.60707 13.343 6.09298 13.343H15.2077C17.3852 13.343 18.5918 13.0669 19.3724 12.39C20.173 11.6959 20.5145 10.5625 20.5145 8.60042V5.50578C20.5145 3.79353 20.461 2.61349 19.7455 1.84307ZM13.4519 7.48035L9.31292 9.44032C9.22039 9.48414 9.1192 9.50588 9.01814 9.50588C8.90372 9.50588 8.78955 9.47797 8.68843 9.4225C8.49802 9.31796 8.38175 9.13096 8.38175 8.92926V5.02189C8.38175 4.82053 8.4977 4.63371 8.68773 4.52911C8.87782 4.42452 9.11423 4.41737 9.31145 4.5102L13.4505 6.45754C13.661 6.55661 13.7932 6.75358 13.7935 6.96848C13.7938 7.18357 13.6622 7.38082 13.4519 7.48035Z" fill="#7C7675"/>
</g>
<defs>
<clipPath id="clip0_8_379">
<rect width="19.7281" height="13.1716" fill="white" transform="translate(0.786377 0.763184)"/>
</clipPath>
</defs>
</svg>
